<svg xmlns="http://www.w3.org/2000/svg" width="512" height="512" id="jupiter"><circle cx="256" cy="256" r="174.785" fill="#FE5B67"></circle><path fill="#FFE3D1" d="M184.036 181.279c-49.847 49.847-86.327 63.959-102.65 67.957-.086 2.248-.171 4.496-.171 6.765 0 12.78 1.408 25.228 4.013 37.228 29.444-6.643 59.483-44.673 71.921-62.104a114.202 114.202 0 0 1 14.183-16.334c11.585-11.05 31.534-31.412 33.643-42.482 2.99-15.706-20.939 8.97-20.939 8.97zm176.697-65.218a174.242 174.242 0 0 0-51.407-26.531c-.408 17.743-7.688 62.718-61.545 127.98-3.76 4.558.632 11.196 6.297 9.517 21.059-6.245 60.635-29.225 106.655-110.966zM174.909 264.736c-16 5.75-22.905 17.258-22.905 17.258-19.713 30.664-44.518 40.25-56.531 43.197a174.602 174.602 0 0 0 16.378 29.639c12.561-6.643 31.862-24.398 41.956-51.797 5.992-16.266 15.643-26.436 24.127-32.631 3.049-2.226.529-6.943-3.025-5.666zM212.025 86.8c-3.478 15.125-16.219 48.392-62.402 69.672 0 0-10.191 5.582-12.58 9.989-1.237 2.283 1.228 4.807 3.509 3.565 3.263-1.778 7.984-4.035 14.457-6.444 2.341-.872 57.73-27.154 77.518-80.754-6.968.937-13.819 2.24-20.502 3.972zm57.468 180.348c-19.1 16.574-38.682 39.384-76.196 69.774-23.943 19.397-53.735 30.479-68.027 35.038 13.3 14.982 29.116 27.676 46.815 37.382 13.521-12.954 34.895-34.047 56.827-58.174 28.492-31.341 40.557-59.381 47.863-78.965 1.661-4.443-3.698-8.164-7.282-5.055zM398.521 154.88a175.306 175.306 0 0 0-17.182-20.639c-3.951 7.11-8.739 19.117-9.016 36.003-.477 28.967-20.896 44.638-20.896 44.638s-11.485 7.45-19.146 23.354c-1.104 2.292 1.943 4.32 3.6 2.388 6.458-7.537 15.736-17.013 24.095-20.519 14.723-6.173 22.796-22.319 25.645-40.839 1.382-8.987 7.237-17.745 12.9-24.386zM241.003 386.453c-12.495 16.977-28.498 31.888-34.429 37.199a173.548 173.548 0 0 0 16.409 3.977c11.981-14.688 18.501-29.174 21.914-39.15.825-2.413-2.384-4.079-3.894-2.026zm170.183-91.212c-3.403 11.763-7.075 20.979-10.311 27.874-.785 1.675 1.575 2.973 2.601 1.435 4.641-6.96 9.893-16.382 14.292-28.256 2.354-6.353 6.449-11.913 11.394-16.729a176.224 176.224 0 0 0 1.537-20.069c-5.327 5.205-13.802 16.012-19.513 35.745zm-25.09-16.251s22.309-39.56 41.167-58.061a173.415 173.415 0 0 0-13.385-39.98c-8.08 18.547-28.496 63.331-46.303 85.219 0 0-43.688-3.324-72.181 87.377 0 0-23.316 53.936-53.063 76.658 4.515.35 9.063.582 13.668.582 4.164 0 8.278-.197 12.371-.484 9.479-11.908 34.613-42.037 53.142-51.113 0 0 39.414 0 60.31-47.012-.001 0 11.397-28.018 4.274-53.186zm-21.972 52.585c-11.011 19.071-26.955 30.481-35.612 25.483-8.655-4.998-6.748-24.512 4.264-43.584 11.012-19.07 26.956-30.48 35.611-25.482 8.657 4.998 6.749 24.512-4.263 43.583z"></path><circle cx="310.938" cy="156.659" r="4.84" fill="#FE5B67"></circle><circle cx="310.249" cy="143.239" r="3.081" fill="#FE5B67"></circle><circle cx="303.087" cy="368.531" r="9.681" fill="#FE5B67"></circle><circle cx="305.728" cy="343.449" r="3.08" fill="#FE5B67"></circle><circle cx="112.11" cy="257.589" r="5.72" fill="#FE5B67"></circle><circle cx="201.239" cy="348.994" r="2.988" fill="#FE5B67"></circle><circle cx="202.622" cy="339.072" r="1.841" fill="#FE5B67"></circle></svg>