<svg xmlns="http://www.w3.org/2000/svg" width="36" height="36" id="mars"><g color="#000"><g transform="translate(2 -1018.362)"><circle style="isolation:auto;mix-blend-mode:normal" cx="16" cy="1036.362" r="16" fill="#f05542" overflow="visible"></circle><circle cx="16" cy="1036.362" r="16" fill="#f05542" overflow="visible" style="isolation:auto;mix-blend-mode:normal"></circle><path style="isolation:auto;mix-blend-mode:normal" fill="#fcd062" d="M16.5 1c-.554 0-1 .446-1 1s.446 1 1 1h1c.554 0 1 .446 1 1s-.446 1-1 1h-2c-.554 0-1 .446-1 1s.446 1 1 1h13.709a16 16 0 0 0-1.602-2H24.5c-.554 0-1-.446-1-1s.446-1 1-1h.805a16 16 0 0 0-3.795-2H16.5Z" overflow="visible" transform="translate(0 1020.362)"></path><path style="isolation:auto;mix-blend-mode:normal" fill="#f17f53" d="M22 9a1 1 0 0 0-1 1 1 1 0 0 0 1 1 1 1 0 0 0 1-1 1 1 0 0 0-1-1zm4 0c-.554 0-1 .446-1 1s.446 1 1 1h2c.554 0 1 .446 1 1s-.446 1-1 1h-4c-.554 0-1 .446-1 1s.446 1 1 1h7.963a16 16 0 0 0-1.588-6H26Z" overflow="visible" transform="translate(0 1020.362)"></path><path style="isolation:auto;mix-blend-mode:normal" fill="#fcd062" d="M.037 17a16 16 0 0 0 .258 2H2.07c.554 0 1 .446 1 1s-.446 1-1 1H.824a16 16 0 0 0 .801 2H14c.554 0 1-.446 1-1s-.446-1-1-1h-1c-.554 0-1-.446-1-1s.446-1 1-1h5c.554 0 1-.446 1-1s-.446-1-1-1z" overflow="visible" transform="translate(0 1020.362)"></path><path style="isolation:auto;mix-blend-mode:normal" fill="#f17f53" d="M2.791 25a16 16 0 0 0 1.602 2H9c.554 0 1-.446 1-1s-.446-1-1-1H2.791zm3.904 4a16 16 0 0 0 3.795 2H11c.554 0 1-.446 1-1s-.446-1-1-1H6.695zM21 25c-.554 0-1 .446-1 1s.446 1 1 1h2c.554 0 1 .446 1 1s-.446 1-1 1h-1.5c-.554 0-1 .446-1 1s.446 1 1 1h.031a16 16 0 0 0 7.696-6H21z" overflow="visible" transform="translate(0 1020.362)"></path><circle cx="17" cy="1042.362" r="1" fill="#fcd062" overflow="visible" style="isolation:auto;mix-blend-mode:normal"></circle><circle style="isolation:auto;mix-blend-mode:normal" cx="21" cy="1040.362" r="1" fill="#fcd062" overflow="visible"></circle><path style="isolation:auto;mix-blend-mode:normal" fill="#f17f53" d="M2.773 7a16 16 0 0 0-2.482 6H7c.554 0 1-.446 1-1s-.446-1-1-1H6c-.554 0-1-.446-1-1s.446-1 1-1h5c.554 0 1-.446 1-1s-.446-1-1-1H2.773Z" overflow="visible" transform="translate(0 1020.362)"></path></g><path style="line-height:normal;text-indent:0;text-align:start;text-decoration-line:none;text-decoration-style:solid;text-decoration-color:#000;text-transform:none;block-progression:tb;isolation:auto;mix-blend-mode:normal" fill="#e9eded" d="M18 1C9.914 1 2.96 6.722 1.36 14.63a1 1 0 0 0-.048.167l-.001.01a1 1 0 0 0-.004.017 1 1 0 0 0-.016.166 1 1 0 0 0 0 .01c-.18.989-.289 1.992-.291 2.998a1 1 0 0 0 0 .012c.005.536.036 1.07.092 1.603a16.978 16.978 0 0 0 .1.819v-.01c.033.246.072.491.117.736a1 1 0 0 0 .002.014l.002.01a17.007 17.007 0 0 0 1.412 4.244 1 1 0 0 0 .002.01c.36.737.774 1.447 1.238 2.125a1 1 0 0 0 .06.08 1 1 0 0 0 .008.01 17.02 17.02 0 0 0 1.63 2.03 1 1 0 0 0 .005.01c1.735 1.824 3.866 3.213 6.213 4.118l-.098-.1a1 1 0 0 0 .155.127h.003c.07.026.128.074.198.1a1 1 0 0 0 .004 0h.005a16.998 16.998 0 0 0 5.848 1.06 1 1 0 0 0 .006 0c2.006 0 3.996-.364 5.877-1.062l.24-.079a1 1 0 0 0 .045-.017c.926-.365 1.817-.81 2.664-1.332.033-.02.067-.038.1-.057a1 1 0 0 0 .031-.017c.382-.24.752-.499 1.113-.768l.016-.01a1 1 0 0 0 .049-.031l.213-.154a1 1 0 0 0 .025-.02c.35-.273.69-.56 1.018-.861.087-.076.175-.151.261-.229a1 1 0 0 0 .028-.025l.006-.01h.007c.278-.268.546-.547.805-.834l.033-.033a1 1 0 0 0 .018-.018c.1-.106.2-.211.299-.32a1 1 0 0 0 .023-.027c.215-.256.42-.518.62-.785l.019-.022a1 1 0 0 0 .015-.021c.157-.198.31-.398.457-.602a1 1 0 0 0 .01-.014l.057-.082a1 1 0 0 0 .002 0A16.997 16.997 0 0 0 35 18.006a17 17 0 0 0-3.941-10.86l-.004-.01c-.23-.279-.47-.551-.717-.816a1 1 0 0 0-.006-.01 16.986 16.986 0 0 0-6.268-4.142h-.002a1 1 0 0 0-.205-.104h-.002a16.997 16.997 0 0 0-5.851-1.062 1 1 0 0 0-.004 0V1zm0 1a16 16 0 0 1 5.51 1 16 16 0 0 0 .002.002A16 16 0 0 1 29.607 7a16 16 0 0 1 .68.773A16 16 0 0 1 34 18a16 16 0 0 1-1.959 7.67 16 16 0 0 1-.814 1.33 16 16 0 0 1-.053.076 16 16 0 0 1-.43.567 16 16 0 0 1-.02.023 16 16 0 0 1-.617.781 16 16 0 0 1-.28.303 16 16 0 0 1-.034.033 16 16 0 0 1-.805.834 16 16 0 0 0-.002.002 16 16 0 0 1-.26.229 16 16 0 0 1-.01.007 16 16 0 0 1-.956.811 16 16 0 0 1-.201.145 16 16 0 0 1-.016.01 16 16 0 0 1-1.115.767 16 16 0 0 1-.123.07 16 16 0 0 1-2.508 1.254 16 16 0 0 1-.266.088A16 16 0 0 1 18 34a16 16 0 0 1-5.51-1 16 16 0 0 0-.002-.002 16 16 0 0 1-.006-.002A16 16 0 0 1 6.392 29a16 16 0 0 1-.68-.773 16 16 0 0 1-.917-1.223A16 16 0 0 1 4.79 27a16 16 0 0 1-1.166-2l-.008-.018A16 16 0 0 1 2.295 21l-.002-.01a16 16 0 0 1 0-.004 16 16 0 0 1-.111-.697l-.004-.023a15.987 15.987 0 0 1-.092-.756A16 16 0 0 1 2 18a16 16 0 0 1 .291-3 16 16 0 0 0 0-.002 16 16 0 0 1 .002-.004A16 16 0 0 1 18 2z" font-family="sans-serif" font-weight="400" overflow="visible"></path></g></svg>