<svg xmlns="http://www.w3.org/2000/svg" width="64" height="64" id="neptune"><g color="#000" transform="translate(0 -1020.362)"><circle cx="16" cy="1036.362" r="16" fill="#60c5b8" overflow="visible"></circle><circle cx="16" cy="1036.362" r="16" fill="#4bbfeb" overflow="visible"></circle><path fill="#78c8f0" d="M16 1020.382c-.554 0-1 .446-1 1s.446 1 1 1h1c.554 0 1 .446 1 1s-.446 1-1 1h-3.5c-.554 0-1 .446-1 1s.446 1 1 1h3.232c.554 0 1 .446 1 1s-.446 1-1 1h-1.714c-.554 0-1 .446-1 1s.446 1 1 1H21.01c.554 0 1 .446 1 1s-.446 1-1 1H11c-.554 0-1 .446-1 1s.446 1 1 1h6.145c.554 0 1 .446 1 1s-.446 1-1 1h-2.19c-.554 0-1 .446-1 1s.446 1 1 1h7.908c.554 0 1 .446 1 1s-.446 1-1 1H10.058c-.554 0-1 .446-1 1s.446 1 1 1h8.994c.554 0 1 .446 1 1s-.446 1-1 1H16c-.554 0-1 .446-1 1s.446 1 1 1h6.001c.554 0 1 .446 1 1s-.446 1-1 1h-7.47c-.555 0-1 .446-1 1s.445 1 1 1h2.332c.554 0 1 .446 1 1 0 .486-.37.86-.828.951 8.407-.555 14.963-7.526 14.965-15.951 0-8.837-7.163-16-16-16z" overflow="visible"></path><circle cx="11" cy="1049.362" r="1" fill="#78c8f0" overflow="visible"></circle><circle cx="7" cy="1041.362" r="1" fill="#78c8f0" overflow="visible"></circle><circle cx="20" cy="1035.362" r="1" fill="#4bbfeb" overflow="visible"></circle><circle cx="21" cy="1023.362" r="1" fill="#4bbfeb" overflow="visible"></circle><path fill="#78c8f0" d="M13 1029.362a1 1 0 1 1-2 0 1 1 0 0 1 2 0z" overflow="visible"></path><path fill="#4bbfeb" d="M24 1043.362a1 1 0 1 1-2 0 1 1 0 0 1 2 0z" overflow="visible"></path></g></svg>