<svg xmlns="http://www.w3.org/2000/svg" width="512" height="512" id="neptune"><circle cx="256" cy="256" r="174.785" fill="#304757"></circle><path fill="#4A6273" d="M92.251 317.229c40.477-14.433 144.719-67.713 158.165-235.917-5.576.175-11.089.603-16.522 1.288-3.125 33.438-23.53 128.095-151.733 191.646 1.552 14.971 5 29.378 10.09 42.983zm243.122-216.992c-4.393 179.937-164.926 251.089-213.022 268.39 20.099 23.826 46.447 42.202 76.523 52.6 149.515-120.736 163.88-262.467 164.77-302.938a174.907 174.907 0 0 0-28.271-18.052z"></path><path fill="#677F8C" d="M358.334 333.568c-33.834 37.088-54.213 72.115-64.736 93.149a173.512 173.512 0 0 0 40.2-14.173c11.116-24.896 24.771-48.633 40.13-61.305 25.146-20.745 43.433-46.412 53.971-63.475a175.75 175.75 0 0 0 2.888-31.768c0-17.819-2.674-35.014-7.63-51.21-12.291 39.842-33.488 94.435-64.823 128.782zM293.318 85.221c-1.236 29.003-9.84 83.16-51.414 140.235-35.605 48.883-96.423 87.242-141.19 110.833a174.7 174.7 0 0 0 5.459 9.76c40.413-19.205 95.383-53.543 144.048-112.276 49.209-59.392 65.171-108.306 69.505-140.572a173.26 173.26 0 0 0-26.408-7.98zM90.339 200.123c66.871-33.854 99.412-84.222 112.698-110.73a173.62 173.62 0 0 0-10.77 3.81C166.262 138.5 125.126 165 99.563 177.982a173.861 173.861 0 0 0-9.224 22.141z"></path></svg>