<svg xmlns="http://www.w3.org/2000/svg" width="64" height="64" id="saturn"><g color="#000" transform="translate(-.01 -1020.362)"><circle cx="16" cy="1036.362" r="13" fill="#fcd062" overflow="visible"></circle><path fill="#f8b84e" d="M6.639 1027.362a13 13 0 0 0-1.577 2H14c.554 0 1-.446 1-1s-.446-1-1-1H6.639zm10.361 0c-.554 0-1 .446-1 1s.446 1 1 1 1-.446 1-1-.446-1-1-1zm4 4c-.554 0-1 .446-1 1s.446 1 1 1h7.633a13 13 0 0 0-.645-2H21zm-17.828 3a13 13 0 0 0-.123 1H6.5a.499.499 0 1 0 0-1H3.172zm5.299 0a.507.507 0 0 0-.508.51c0 .282.226.51.508.51h.02a.509.509 0 1 0 0-1.02h-.02zm-5.471 2a13 13 0 0 0 .164 2H9c.554 0 1-.446 1-1s-.446-1-1-1H3zm14.963 1c-1.108 0-2 .892-2 2s.892 2 2 2h10.035a13 13 0 0 0 .953-4H17.963zm3.537 5a.499.499 0 1 0 0 1h5.438a13 13 0 0 0 .583-1H21.5zm-15.74 2a13 13 0 0 0 3.342 3H15.5a.499.499 0 1 0 0-1h-3a.499.499 0 1 1 0-1h2a.499.499 0 1 0 0-1H5.76zm11.74 2a.5.5 0 0 0-.5.5.5.5 0 0 0 .5.5.5.5 0 0 0 .5-.5.5.5 0 0 0-.5-.5z" overflow="visible"></path><path fill="#f8a44e" d="M29.816 1026.36c-1.118.066-2.62.418-4.412 1.034.281.293.549.6.801.917 1.26-.422 2.357-.202 2.68.332.312.542.098 1.606-.928 2.653-2.247 2.17-6.128 4.96-10.48 7.539-4.371 2.585-8.701 4.65-11.686 5.572-1.206.323-2.742.173-2.656-.838 0-.555.373-1.207.91-2.137a12.999 12.999 0 0 1-.42-1.14c-2.772 2.523-4.027 4.493-3.473 5.45.566.95 2.895.8 6.44-.415 3.306-1.13 7.41-3.1 11.47-5.502 4.046-2.396 7.736-5.039 10.315-7.387 2.785-2.531 4.048-4.509 3.49-5.466-.274-.465-.971-.673-2.05-.612z" overflow="visible"></path></g></svg>