<svg xmlns="http://www.w3.org/2000/svg" width="36" height="36" id="venus"><g color="#000"><g transform="translate(228 -1014.362)"><circle style="isolation:auto;mix-blend-mode:normal" cx="-209.999" cy="1032.362" r="16" fill="#60c5b8" overflow="visible"></circle><circle cx="-209.999" cy="1032.362" r="16" fill="#f05542" overflow="visible" style="isolation:auto;mix-blend-mode:normal"></circle><path style="isolation:auto;mix-blend-mode:normal" fill="#e44a3c" d="M-208.345 1016.45a.991.991 0 0 0-.654.932c0 .554.446 1 1 1s1 .446 1 1-.446 1-1 1h-2.889c-.554 0-1 .446-1 1s.446 1 1 1h7.929c.555 0 1 .446 1 1s-.445 1-1 1h-1.97c-.554 0-1 .446-1 1s.446 1 1 1h5.975c.554 0 1 .446 1 1s-.446 1-1 1h-11.028c-.554 0-1 .446-1 1s.446 1 1 1H-203.89c.554 0 1 .446 1 1s-.446 1-1 1h-1.117c-.554 0-1 .446-1 1s.446 1 1 1h3.057c.554 0 1 .446 1 1s-.446 1-1 1h-6.996c-.554 0-1 .446-1 1s.446 1 1 1h8.935c.554 0 1 .446 1 1s-.446 1-1 1h-6.947c-.554 0-1 .446-1 1s.446 1 1 1h2.947c.554 0 1 .446 1 1s-.446 1-1 1h-5.998c-.554 0-1 .446-1 1s.446 1 1 1h2.973c.554 0 .9.446.9 1a.939.939 0 0 1-.174.529 16 16 0 0 0 12.311-15.549c-.001-8.195-6.194-15.065-14.346-15.912z" overflow="visible"></path><path style="isolation:auto;mix-blend-mode:normal" fill="#e23f37" d="M-208.345 1016.45a.991.991 0 0 0-.654.932c0 .554.446 1 1 1h1.1c.554 0 1 .446 1 1s-.446 1-1 1h-2.989c-.554 0-1 .446-1 1s.446 1 1 1h7.93c.554 0 1 .446 1 1s-.446 1-1 1h-1.97c-.555 0-1 .446-1 1s.445 1 1 1h5.974c.554 0 1 .446 1 1s-.446 1-1 1h-11.027c-.554 0-1 .446-1 1s.446 1 1 1h6.091c.554 0 1 .446 1 1s-.446 1-1 1h-1.117c-.554 0-1 .446-1 1s.446 1 1 1h3.057c.554 0 1 .446 1 1s-.446 1-1 1h-6.996c-.554 0-1 .446-1 1s.446 1 1 1h8.935c.554 0 1 .446 1 1s-.446 1-1 1h-6.947c-.554 0-1 .446-1 1s.446 1 1 1h2.948c.554 0 1 .446 1 1s-.446 1-1 1h-5.999c-.554 0-1 .446-1 1s.446 1 1 1H-207.136c.554 0 1 .446 1 1a.939.939 0 0 1-.174.529 16 16 0 0 0 12.311-15.549c-.001-8.195-6.194-15.065-14.346-15.912z" overflow="visible"></path><path style="isolation:auto;mix-blend-mode:normal" fill="#ea714a" d="M-219.633 1020.38c-3.328 2.932-5.434 7.217-5.434 12 .002 5.994 3.319 11.243 8.254 13.981h.85a.988.988 0 0 0 .903-.98c0-.554-.446-1-1-1h-1.983c-.554 0-1-.446-1-1s.446-1 1-1h2.93c.553 0 1-.446 1-1s-.447-1-1-1h-5.942c-.554 0-1-.446-1-1s.446-1 1-1h1.994c.554 0 1-.446 1-1s-.446-1-1-1h-.974c-.554 0-1-.446-1-1s.446-1 1-1h2.906c.554 0 1-.446 1-1s-.446-1-1-1h-5.842c-.554 0-1-.446-1-1s.446-1 1-1h5.354c.554 0 1-.446 1-1s-.446-1-1-1h-2.487c-.554 0-1-.446-1-1s.446-1 1-1h3.096c.554 0 1-.446 1-1s-.446-1-1-1h-2.041c-.554 0-1-.446-1-1s.446-1 1-1h.342c.554 0 1-.446 1-1s-.446-1-1-1z" overflow="visible"></path><path style="isolation:auto;mix-blend-mode:normal" fill="#f17f53" d="M-220.567 1020.381c-3.329 2.931-5.434 7.216-5.434 12 .002 5.994 3.318 11.242 8.254 13.98h.85a.988.988 0 0 0 .902-.98c0-.554-.446-1-1-1h-1.983c-.554 0-1-.446-1-1s.446-1 1-1h2.93c.554 0 1-.446 1-1s-.446-1-1-1h-5.941c-.554 0-1-.446-1-1s.446-1 1-1h1.994c.554 0 1-.446 1-1s-.446-1-1-1h-.975c-.554 0-1-.446-1-1s.446-1 1-1h2.907c.554 0 1-.446 1-1s-.446-1-1-1h-5.842c-.554 0-1-.446-1-1s.446-1 1-1h5.353c.554 0 1-.446 1-1s-.446-1-1-1h-2.486c-.554 0-1-.446-1-1s.446-1 1-1h3.096c.554 0 1-.446 1-1s-.446-1-1-1h-2.041c-.554 0-1-.446-1-1s.446-1 1-1h.341c.554 0 1-.446 1-1s-.446-1-1-1z" overflow="visible"></path></g><path style="line-height:normal;text-indent:0;text-align:start;text-decoration-line:none;text-decoration-style:solid;text-decoration-color:#000;text-transform:none;block-progression:tb;isolation:auto;mix-blend-mode:normal" fill="#e9eded" d="M17.998.994V1A17.005 17.005 0 0 0 4.404 7.83a1 1 0 0 0-.006.01c.007-.01-.005.01-.035.047a1 1 0 0 0-.002 0 17.001 17.001 0 0 0-1.023 1.545 1 1 0 0 0-.004.01c-.217.375-.42.757-.607 1.148l-.014.025c-.003.01-.005.012-.008.018a1 1 0 0 0-.012.023c-.053.111-.12.24-.19.393a.562.562 0 0 0-.005.014 1 1 0 0 0-.002.01c-.16.36-.305.725-.44 1.095-.06.164-.134.35-.206.568a.855.855 0 0 1-.004.01 1 1 0 0 0-.002.01c-.112.355-.213.713-.301 1.074-.045.176-.108.384-.162.635a1 1 0 0 0-.002.01c-.076.376-.14.754-.19 1.134l-.002.018c-.02.142-.062.337-.09.596-.063.59-.096 1.184-.097 1.777v.024a16.999 16.999 0 0 0 .242 2.81l.018.105a1 1 0 0 0 .002.01c.191 1.096.486 2.157.879 3.172a1 1 0 0 0 .005.01l.04.098a1 1 0 0 0 .002 0c.394.998.878 1.954 1.449 2.853h.002a1 1 0 0 0 .002 0c.047.074.094.148.142.22a1 1 0 0 0 .033.048l.006.011c.265.402.545.808.86 1.203a1 1 0 0 0 .004 0c-.01-.012-.024-.028.003.01a1 1 0 0 0 .002 0l.024.026a1 1 0 0 0 .043.048h.002a17.552 17.552 0 0 0 1.191 1.327 1 1 0 0 0 .002 0l.006.01c.326.327.67.654 1.039.968-.003 0 .001 0 .014.014a1 1 0 0 0 .023.017c.068.054.135.108.203.16l.026.022a17.113 17.113 0 0 0 1.29.957 1 1 0 0 0 .003 0c.383.257.784.513 1.21.75a1 1 0 0 0 .256.098c2.458 1.31 5.19 2.025 7.977 2.027a1 1 0 0 0 .004 0c1.8-.01 3.585-.3 5.293-.867l.07-.024c.417-.138.827-.294 1.233-.464l.074-.03a1 1 0 0 0 .008 0c.115-.049.119-.051.015-.01a1 1 0 0 0 .002 0 17.006 17.006 0 0 0 4.63-2.953h.001a.563.563 0 0 0 .022-.017l.101-.09c.07-.063.07-.064.004 0a1 1 0 0 0 .002 0c.293-.269.576-.547.85-.836h.004c.076-.08.15-.159.218-.234h.002c.256-.278.502-.565.738-.86a1 1 0 0 0 .002 0c.11-.138.112-.14.004-.01.08-.1.136-.18.178-.234a17.01 17.01 0 0 0 1.84-2.982c-.002 0 .009-.016.031-.063.055-.114.134-.262.219-.453a1 1 0 0 0 .006-.01c.108-.251.209-.507.304-.763l.004-.012h.002a16.864 16.864 0 0 0 .25-.691 1 1 0 0 0 .002 0c.084-.252.162-.503.235-.758.076-.27.14-.534.2-.793.055-.227.104-.455.15-.684a1 1 0 0 0 .001-.01 16.747 16.747 0 0 0 .143-.935l-.004.015c.032-.215.06-.432.084-.648a1 1 0 0 0 .002-.016A17.071 17.071 0 0 0 35 18.013a1 1 0 0 0 0-.01 17.012 17.012 0 0 0-.19-2.417l-.001-.018a17.04 17.04 0 0 0-.077-.535 1 1 0 0 0-.003-.015c-.074-.411-.17-.799-.262-1.166l-.006-.024-.006-.027a16.953 16.953 0 0 0-.084-.356 1 1 0 0 0-.008-.027 16.906 16.906 0 0 0-1.19-3.063 1 1 0 0 0-.013-.021 16.779 16.779 0 0 0-.205-.371l-.014-.025c-.172-.32-.354-.654-.566-.989a1 1 0 0 0-.01-.013 16.935 16.935 0 0 0-.353-.518l-.01-.014a16.509 16.509 0 0 0-.547-.763 1 1 0 0 0-.006-.01c-.148-.189-.3-.375-.457-.557l-.008-.01c-.183-.217-.374-.44-.582-.662a1 1 0 0 0-.004 0 16.978 16.978 0 0 0-.517-.523 17.077 17.077 0 0 0-.631-.59 17.06 17.06 0 0 0-.564-.476c.045.036.075.06-.03-.028-.23-.186-.46-.355-.683-.517-.009-.01-.006-.002-.008-.012l-.008-.01a16.976 16.976 0 0 0-.576-.406 1 1 0 0 0-.006 0c-.276-.183-.55-.345-.814-.5l-.012-.01a17.13 17.13 0 0 0-.543-.312 1 1 0 0 0-.012-.01c-.33-.176-.657-.327-.97-.469l-.02-.01a18.742 18.742 0 0 0-.457-.21 1 1 0 0 0-.02-.01c-.363-.152-.72-.273-1.058-.387l-.024-.01a17.66 17.66 0 0 0-.465-.162 1 1 0 0 0-.02-.01 1 1 0 0 0-.003 0h-.004c-.35-.106-.684-.18-.994-.254l-.03-.01c-.18-.047-.36-.094-.542-.136a1 1 0 0 0-.03-.01c-.234-.047-.412-.062-.521-.08a1 1 0 0 0-.006 0 12.18 12.18 0 0 0-.267-.043l.029.01c-.269-.047-.54-.09-.81-.123a1 1 0 0 0-.022 0h-.012a.302.302 0 0 1-.094-.012c-.549-.054-1.1-.087-1.652-.088a1 1 0 0 0-.004 0zM18 2a16 16 0 0 1 1.654.088h.002a16 16 0 0 1 .762.115 16 16 0 0 1 .252.04c.162.027.33.041.49.073a16 16 0 0 1 .54.135c.323.077.647.15.962.246l.004.002a16 16 0 0 1 .459.16c.343.116.686.233 1.018.371a16 16 0 0 1 .449.208l.01.003c.311.142.621.286.921.446a16 16 0 0 1 .522.3c.263.154.524.31.777.477a16 16 0 0 1 .55.387l.013.01a16 16 0 0 1 .644.488l.006.006a16 16 0 0 1 .553.466c.203.18.4.366.594.555a16 16 0 0 1 .49.496c.191.205.374.417.555.631a16 16 0 0 1 .437.531c.183.238.354.485.523.733a16 16 0 0 1 .342.5c.195.308.371.629.545.951a16 16 0 0 1 .207.371 15.91 15.91 0 0 1 1.117 2.873l.002.008a16 16 0 0 1 .086.36l.012.048c.092.362.18.725.246 1.096v.004a16 16 0 0 1 .074.52c.048.329.094.658.121.993v.002A16 16 0 0 1 34 18c0 .488-.026.972-.07 1.451l-.002.01a16 16 0 0 1-.078.61l-.002.017c-.039.29-.077.578-.131.863a16 16 0 0 1-.14.643c-.06.253-.122.505-.192.754a16 16 0 0 1-.22.715c-.003.005-.003.01-.005.015a15.91 15.91 0 0 1-.232.635l-.006.014a16 16 0 0 1-.291.728c-.064.145-.139.283-.207.426l-.03.058a16 16 0 0 1-1.72 2.795l-.01.012c-.056.073-.11.148-.168.22l-.004.007a16 16 0 0 1-.697.81l-.002.002c-.068.074-.136.148-.205.22l-.004.005a16 16 0 0 1-.8.789l-.005.004c-.031.028-.064.055-.095.084l-.022.017a16 16 0 0 1-4.357 2.782l-.016.007a16 16 0 0 1-.006.002 16 16 0 0 1-1.23.465l-.07.024A16 16 0 0 1 18 34a16 16 0 0 1-7.736-2h-.012a16.016 16.016 0 0 1-1.139-.705 16 16 0 0 1-.314-.217 16.1 16.1 0 0 1-.91-.691 16 16 0 0 1-.04-.032 16 16 0 0 1-.19-.15l-.014-.012c-.341-.29-.664-.597-.979-.914a16 16 0 0 1-.006-.006A16 16 0 0 1 6.395 29a16.08 16.08 0 0 1-.922-1.047l-.006-.008a16 16 0 0 1-.002-.002c-.3-.378-.576-.775-.842-1.18a16 16 0 0 1-.006-.007 16 16 0 0 1-.135-.207l-.002-.002a15.93 15.93 0 0 1-1.363-2.686 16 16 0 0 1-.006-.013 16 16 0 0 1-.037-.092 15.826 15.826 0 0 1-.828-2.983 16 16 0 0 1-.017-.109l-.002-.016A15.998 15.998 0 0 1 2 18.02v-.008A16 16 0 0 1 2 18a16 16 0 0 1 .092-1.674v-.002c.02-.19.06-.373.086-.56a16 16 0 0 1 .004-.028 16 16 0 0 1 .177-1.068v-.002c.044-.205.103-.403.155-.605a16 16 0 0 1 .283-1.012l.002-.008c.06-.183.13-.36.197-.541a16 16 0 0 1 .414-1.031l.006-.014c.056-.125.118-.246.178-.37a16 16 0 0 1 .013-.024A16 16 0 0 1 4.2 9.938c.046-.078.094-.154.14-.231a16 16 0 0 1 .825-1.227l.033-.043a16 16 0 0 1 .008-.01A16 16 0 0 1 18 2z" font-family="sans-serif" font-weight="400" overflow="visible"></path></g></svg>